<svg width="180" height="180" viewBox="0 0 180 180" fill="none" xmlns="http://www.w3.org/2000/svg">
<g id="&#230;&#150;&#176;&#229;&#175;&#185;&#232;&#175;&#157;">
<path id="Rectangle 1426 (Stroke)" fill-rule="evenodd" clip-rule="evenodd" d="M65.8637 40.5C41.9541 40.5 22.5 60.2 22.5 84.1889C22.5 107.821 41.6649 127.227 65.2177 127.227C68.9866 127.227 72.6375 128.542 75.5415 130.944L90.6429 143.437V140.727C90.6429 133.272 96.687 127.227 104.143 127.227H117C139.367 127.227 157.5 109.094 157.5 86.7263V73.2273C157.5 70.742 159.515 68.7273 162 68.7273C164.485 68.7273 166.5 70.742 166.5 73.2273V86.7263C166.5 114.064 144.338 136.227 117 136.227H104.143C101.658 136.227 99.6429 138.242 99.6429 140.727V153C99.6429 154.743 98.6361 156.33 97.0589 157.072C95.4816 157.814 93.6176 157.579 92.2745 156.467L69.8047 137.879C68.5144 136.811 66.8923 136.227 65.2177 136.227C36.6153 136.227 13.5 112.712 13.5 84.1889C13.5 55.3089 36.9045 31.5 65.8637 31.5H105.429C107.914 31.5 109.929 33.5147 109.929 36C109.929 38.4853 107.914 40.5 105.429 40.5H65.8637Z" fill="#F4F6F7"/>
<path id="Union" d="M109.621 60.2193C108.729 60.092 108 59.3657 108 58.4649C108 57.5642 108.727 56.8383 109.624 56.7488C116.521 56.0598 128.107 51.0755 128.922 37.5331C128.973 36.6883 129.654 36 130.5 36C131.346 36 132.027 36.6883 132.078 37.5331C132.893 51.0755 144.479 56.0598 151.376 56.7488C152.273 56.8383 153 57.5642 153 58.4649C153 59.3657 152.271 60.092 151.379 60.2193C144.484 61.2041 133.047 68.0442 132.096 79.4666C132.026 80.31 131.346 81 130.5 81C129.654 81 128.974 80.31 128.904 79.4666C127.953 68.0442 116.516 61.2041 109.621 60.2193Z" fill="#F4F6F7"/>
<path id="Union (Stroke)" fill-rule="evenodd" clip-rule="evenodd" d="M120.444 50.541C116.897 53.3209 112.615 54.638 109.446 54.9546C107.73 55.1259 106.201 56.5382 106.201 58.4618C106.201 60.3938 107.73 61.7643 109.367 61.9981C112.447 62.438 116.721 64.235 120.327 67.2978C123.912 70.3415 126.686 74.5002 127.112 79.6129C127.251 81.2899 128.622 82.7969 130.501 82.7969C132.38 82.7969 133.751 81.2899 133.891 79.6129C134.317 74.5002 137.091 70.3415 140.675 67.2978C144.282 64.235 148.555 62.438 151.635 61.9981C153.273 61.7643 154.801 60.3938 154.801 58.4618C154.801 56.5382 153.272 55.1259 151.556 54.9546C148.387 54.638 144.106 53.3209 140.558 50.541C137.062 47.8021 134.25 43.6294 133.876 37.4218C133.772 35.6991 132.371 34.1969 130.501 34.1969C128.632 34.1969 127.23 35.6991 127.127 37.4218C126.753 43.6294 123.94 47.8021 120.444 50.541ZM108.001 58.4618C108.001 59.3626 108.73 60.0889 109.622 60.2162C116.517 61.201 127.954 68.0411 128.905 79.4635C128.976 80.3069 129.655 80.9969 130.501 80.9969C131.347 80.9969 132.027 80.3069 132.097 79.4635C133.048 68.0411 144.485 61.201 151.381 60.2162C152.272 60.0889 153.001 59.3626 153.001 58.4618C153.001 57.5611 152.274 56.8352 151.377 56.7456C144.481 56.0567 132.894 51.0724 132.079 37.53C132.028 36.6852 131.347 35.9969 130.501 35.9969C129.655 35.9969 128.974 36.6852 128.923 37.53C128.108 51.0724 116.522 56.0567 109.625 56.7456C108.729 56.8352 108.001 57.5611 108.001 58.4618Z" fill="#F4F6F7"/>
</g>
</svg>
