<svg width="20" height="20" viewBox="0 0 20 20" fill="none" xmlns="http://www.w3.org/2000/svg">
<g filter="url(#filter0_ii_6282_60090)">
<rect width="20" height="20" rx="4.33594" fill="url(#paint0_linear_6282_60090)"/>
<path d="M4.44788 10.6073C4.23615 10.6412 4.0625 10.8142 4.0625 11.0286V11.0286C4.0625 11.243 4.23578 11.4158 4.44886 11.4397C5.99589 11.6137 8.56723 12.8097 8.73762 16.0341C8.7476 16.2229 8.89981 16.3764 9.08887 16.3764V16.3764C9.27794 16.3764 9.43015 16.2229 9.44012 16.0341C9.61052 12.8097 12.1819 11.6137 13.7289 11.4397C13.942 11.4158 14.1152 11.243 14.1152 11.0286V11.0286C14.1152 10.8142 13.9416 10.6412 13.7299 10.6073C12.1829 10.3594 9.6428 8.72552 9.44366 6.00661C9.42985 5.81805 9.27794 5.66406 9.08887 5.66406V5.66406C8.89981 5.66406 8.7479 5.81805 8.73409 6.00661C8.53495 8.72552 5.99487 10.3594 4.44788 10.6073Z" fill="white"/>
<g clip-path="url(#paint1_angular_6282_60090_clip_path)" data-figma-skip-parse="true"><g transform="matrix(0 0.00535618 -0.00502637 0 9.08887 11.0202)"><foreignObject x="-1481.83" y="-1481.83" width="2963.67" height="2963.67"><div xmlns="http://www.w3.org/1999/xhtml" style="background:conic-gradient(from 90deg,rgba(96, 255, 81, 1) 0deg,rgba(205, 255, 83, 1) 36.0061deg,rgba(119, 245, 152, 1) 84.245deg,rgba(115, 112, 255, 1) 112.691deg,rgba(196, 101, 255, 1) 169.946deg,rgba(177, 109, 255, 1) 214.1deg,rgba(68, 87, 255, 1) 265.652deg,rgba(74, 211, 255, 1) 308.779deg,rgba(95, 255, 81, 1) 359.695deg,rgba(96, 255, 81, 1) 360deg);height:100%;width:100%;opacity:1"></div></foreignObject></g></g><path fill-rule="evenodd" clip-rule="evenodd" d="M9.52822 15.2832C9.57709 15.0209 9.64333 14.7745 9.7244 14.5432C10.3077 12.8794 11.6587 12.002 12.832 11.6331C12.9221 11.6048 13.011 11.5795 13.0986 11.5571C13.2704 11.513 13.4365 11.4801 13.5937 11.4572C13.6395 11.4505 13.6846 11.4447 13.7289 11.4397C13.942 11.4158 14.1152 11.243 14.1152 11.0286C14.1152 10.8142 13.9416 10.6412 13.7299 10.6073C13.6981 10.6022 13.6659 10.5965 13.6334 10.5903C13.4758 10.56 13.3091 10.5161 13.1365 10.4589C13.0523 10.431 12.9667 10.3999 12.8801 10.3657C11.6948 9.89741 10.3195 8.8415 9.72728 7.28587C9.66035 7.11004 9.60342 6.92784 9.5579 6.73938C9.50513 6.52089 9.4677 6.29399 9.44779 6.05888C9.44632 6.0415 9.44494 6.02408 9.44366 6.00661C9.42985 5.81805 9.27794 5.66406 9.08887 5.66406C8.89981 5.66406 8.7479 5.81805 8.73409 6.00661C8.73281 6.02408 8.73143 6.0415 8.72996 6.05888C8.71005 6.29399 8.67261 6.52089 8.61985 6.73938C8.57433 6.92784 8.5174 7.11004 8.45047 7.28587C7.85829 8.8415 6.48296 9.89741 5.29765 10.3657C5.21105 10.3999 5.12546 10.431 5.04127 10.4589C4.8687 10.5161 4.70198 10.56 4.54439 10.5903C4.51182 10.5965 4.47964 10.6022 4.44788 10.6073C4.23615 10.6412 4.0625 10.8142 4.0625 11.0286C4.0625 11.243 4.23578 11.4158 4.44886 11.4397C4.49312 11.4447 4.53821 11.4505 4.58406 11.4572C4.74127 11.4801 4.90739 11.513 5.07919 11.5571C5.16671 11.5795 5.2557 11.6048 5.34574 11.6331C6.51902 12.002 7.87003 12.8794 8.45335 14.5432C8.53442 14.7745 8.60066 15.0209 8.64953 15.2832C8.69162 15.5091 8.72083 15.7469 8.73555 15.9969C8.73627 16.0093 8.73697 16.0217 8.73762 16.0341C8.7476 16.2229 8.89981 16.3764 9.08887 16.3764C9.27794 16.3764 9.43015 16.2229 9.44012 16.0341C9.44078 16.0217 9.44147 16.0093 9.4422 15.9969C9.45692 15.7469 9.48613 15.5091 9.52822 15.2832ZM7.52837 16.098C7.40107 13.689 5.52739 12.7796 4.31353 12.6431C3.56426 12.5588 2.85156 11.9333 2.85156 11.0286C2.85156 10.1185 3.56264 9.52277 4.25628 9.41162C4.7704 9.32923 5.5804 8.97822 6.2798 8.33945C6.96107 7.71723 7.45446 6.90024 7.52639 5.91816C7.58222 5.15574 8.20794 4.45312 9.08887 4.45312C9.96981 4.45312 10.5955 5.15574 10.6514 5.91816C10.7233 6.90024 11.2167 7.71723 11.898 8.33945C12.5973 8.97822 13.4073 9.32923 13.9215 9.41162C14.6151 9.52277 15.3262 10.1185 15.3262 11.0286C15.3262 11.9333 14.6135 12.5588 13.8642 12.6431C12.6504 12.7796 10.7767 13.689 10.6494 16.098C10.6076 16.8878 9.96321 17.5874 9.08887 17.5874C8.21454 17.5874 7.57011 16.8878 7.52837 16.098Z" data-figma-gradient-fill="{&#34;type&#34;:&#34;GRADIENT_ANGULAR&#34;,&#34;stops&#34;:[{&#34;color&#34;:{&#34;r&#34;:0.80392158031463623,&#34;g&#34;:1.0,&#34;b&#34;:0.32549020648002625,&#34;a&#34;:1.0},&#34;position&#34;:0.10001697391271591},{&#34;color&#34;:{&#34;r&#34;:0.46666666865348816,&#34;g&#34;:0.96078431606292725,&#34;b&#34;:0.59607845544815063,&#34;a&#34;:1.0},&#34;position&#34;:0.23401385545730591},{&#34;color&#34;:{&#34;r&#34;:0.45159718394279480,&#34;g&#34;:0.44040527939796448,&#34;b&#34;:1.0,&#34;a&#34;:1.0},&#34;position&#34;:0.31302952766418457},{&#34;color&#34;:{&#34;r&#34;:0.77065843343734741,&#34;g&#34;:0.39646962285041809,&#34;b&#34;:1.0,&#34;a&#34;:1.0},&#34;position&#34;:0.47207248210906982},{&#34;color&#34;:{&#34;r&#34;:0.69411766529083252,&#34;g&#34;:0.42745098471641541,&#34;b&#34;:1.0,&#34;a&#34;:1.0},&#34;position&#34;:0.59472233057022095},{&#34;color&#34;:{&#34;r&#34;:0.26939696073532104,&#34;g&#34;:0.34418314695358276,&#34;b&#34;:1.0,&#34;a&#34;:1.0},&#34;position&#34;:0.73792111873626709},{&#34;color&#34;:{&#34;r&#34;:0.29134520888328552,&#34;g&#34;:0.82992285490036011,&#34;b&#34;:1.0,&#34;a&#34;:1.0},&#34;position&#34;:0.85771954059600830},{&#34;color&#34;:{&#34;r&#34;:0.37435096502304077,&#34;g&#34;:1.0,&#34;b&#34;:0.31994679570198059,&#34;a&#34;:1.0},&#34;position&#34;:0.99915409088134766}],&#34;stopsVar&#34;:[{&#34;color&#34;:{&#34;r&#34;:0.80392158031463623,&#34;g&#34;:1.0,&#34;b&#34;:0.32549020648002625,&#34;a&#34;:1.0},&#34;position&#34;:0.10001697391271591},{&#34;color&#34;:{&#34;r&#34;:0.46666666865348816,&#34;g&#34;:0.96078431606292725,&#34;b&#34;:0.59607845544815063,&#34;a&#34;:1.0},&#34;position&#34;:0.23401385545730591},{&#34;color&#34;:{&#34;r&#34;:0.45159718394279480,&#34;g&#34;:0.44040527939796448,&#34;b&#34;:1.0,&#34;a&#34;:1.0},&#34;position&#34;:0.31302952766418457},{&#34;color&#34;:{&#34;r&#34;:0.77065843343734741,&#34;g&#34;:0.39646962285041809,&#34;b&#34;:1.0,&#34;a&#34;:1.0},&#34;position&#34;:0.47207248210906982},{&#34;color&#34;:{&#34;r&#34;:0.69411766529083252,&#34;g&#34;:0.42745098471641541,&#34;b&#34;:1.0,&#34;a&#34;:1.0},&#34;position&#34;:0.59472233057022095},{&#34;color&#34;:{&#34;r&#34;:0.26939696073532104,&#34;g&#34;:0.34418314695358276,&#34;b&#34;:1.0,&#34;a&#34;:1.0},&#34;position&#34;:0.73792111873626709},{&#34;color&#34;:{&#34;r&#34;:0.29134520888328552,&#34;g&#34;:0.82992285490036011,&#34;b&#34;:1.0,&#34;a&#34;:1.0},&#34;position&#34;:0.85771954059600830},{&#34;color&#34;:{&#34;r&#34;:0.37435096502304077,&#34;g&#34;:1.0,&#34;b&#34;:0.31994679570198059,&#34;a&#34;:1.0},&#34;position&#34;:0.99915409088134766}],&#34;transform&#34;:{&#34;m00&#34;:6.1555340114848099e-16,&#34;m01&#34;:-10.052748680114746,&#34;m02&#34;:14.115248680114746,&#34;m10&#34;:10.712356567382812,&#34;m11&#34;:6.5594268493064461e-16,&#34;m12&#34;:5.66406250},&#34;opacity&#34;:1.0,&#34;blendMode&#34;:&#34;NORMAL&#34;,&#34;visible&#34;:true}"/>
<path d="M4.44788 10.6073C4.23615 10.6412 4.0625 10.8142 4.0625 11.0286V11.0286C4.0625 11.243 4.23578 11.4158 4.44886 11.4397C5.99589 11.6137 8.56723 12.8097 8.73762 16.0341C8.7476 16.2229 8.89981 16.3764 9.08887 16.3764V16.3764C9.27794 16.3764 9.43015 16.2229 9.44012 16.0341C9.61052 12.8097 12.1819 11.6137 13.7289 11.4397C13.942 11.4158 14.1152 11.243 14.1152 11.0286V11.0286C14.1152 10.8142 13.9416 10.6412 13.7299 10.6073C12.1829 10.3594 9.6428 8.72552 9.44366 6.00661C9.42985 5.81805 9.27794 5.66406 9.08887 5.66406V5.66406C8.89981 5.66406 8.7479 5.81805 8.73409 6.00661C8.53495 8.72552 5.99487 10.3594 4.44788 10.6073Z" fill="white"/>
<path fill-rule="evenodd" clip-rule="evenodd" d="M9.08887 6.60222C8.8557 7.8321 8.18219 8.82387 7.3862 9.55086C6.49815 10.3619 5.42925 10.8703 4.57294 11.0219C6.12604 11.2239 8.5953 12.3676 9.08887 15.2972C9.58245 12.3676 12.0517 11.2239 13.6048 11.0219C12.7485 10.8703 11.6796 10.3619 10.7915 9.55086C9.99556 8.82387 9.32205 7.8321 9.08887 6.60222ZM8.30555 5.97522C8.33427 5.58304 8.65431 5.23438 9.08887 5.23438C9.52344 5.23438 9.84348 5.58304 9.8722 5.97522C9.96196 7.20077 10.5788 8.19274 11.3711 8.91631C12.1698 9.64576 13.1164 10.0738 13.7979 10.183C14.1806 10.2444 14.5449 10.5673 14.5449 11.0286C14.5449 11.488 14.1803 11.8214 13.7769 11.8667C12.3481 12.0274 10.0243 13.1217 9.86921 16.0568C9.84797 16.4588 9.5211 16.8061 9.08887 16.8061C8.65665 16.8061 8.32978 16.4588 8.30854 16.0568C8.15343 13.1217 5.82965 12.0274 4.40084 11.8667C3.9975 11.8214 3.63281 11.488 3.63281 11.0286C3.63281 10.5673 3.99716 10.2444 4.37989 10.183C5.06135 10.0738 6.00797 9.64576 6.80666 8.91631C7.59891 8.19274 8.21579 7.20077 8.30555 5.97522Z" fill="black"/>
<path d="M12.1196 5.47586C12.0282 5.49052 11.9531 5.56525 11.9531 5.6579V5.6579C11.9531 5.75056 12.028 5.8252 12.1201 5.83556C12.7886 5.91073 13.8997 6.42753 13.9733 7.82083C13.9776 7.90242 14.0434 7.96875 14.1251 7.96875V7.96875C14.2068 7.96875 14.2725 7.90242 14.2768 7.82083C14.3505 6.42753 15.4616 5.91073 16.1301 5.83556C16.2221 5.8252 16.297 5.75056 16.297 5.6579V5.6579C16.297 5.56525 16.222 5.49052 16.1305 5.47586C15.462 5.36875 14.3644 4.66273 14.2784 3.48786C14.2724 3.40638 14.2068 3.33984 14.1251 3.33984V3.33984C14.0434 3.33984 13.9777 3.40638 13.9718 3.48786C13.8857 4.66273 12.7881 5.36875 12.1196 5.47586Z" fill="white"/>
<g clip-path="url(#paint2_angular_6282_60090_clip_path)" data-figma-skip-parse="true"><g transform="matrix(0 0.00293945 -0.00279694 0 14.1251 5.6543)"><foreignObject x="-1223.46" y="-1223.46" width="2446.92" height="2446.92"><div xmlns="http://www.w3.org/1999/xhtml" style="background:conic-gradient(from 90deg,rgba(121, 140, 247, 1) 0deg,rgba(183, 109, 240, 1) 58.1523deg,rgba(93, 99, 255, 1) 106.844deg,rgba(103, 255, 89, 1) 148.783deg,rgba(206, 253, 98, 1) 214.1deg,rgba(129, 252, 136, 1) 265.652deg,rgba(121, 74, 255, 1) 308.779deg,rgba(121, 140, 247, 1) 360deg);height:100%;width:100%;opacity:1"></div></foreignObject></g></g><path fill-rule="evenodd" clip-rule="evenodd" d="M14.3368 7.39243C14.3681 7.25948 14.41 7.1366 14.4606 7.02322C14.7074 6.47002 15.1601 6.14275 15.5884 5.97373C15.6433 5.95204 15.6978 5.93296 15.7515 5.91634C15.8636 5.88162 15.9718 5.85764 16.0716 5.8431C16.0915 5.84022 16.1109 5.83771 16.1301 5.83556C16.2221 5.8252 16.297 5.75056 16.297 5.6579C16.297 5.56525 16.222 5.49052 16.1305 5.47586C16.1168 5.47366 16.1029 5.47121 16.0888 5.46851C15.9896 5.44947 15.8821 5.41795 15.7706 5.37435C15.7193 5.3543 15.6672 5.33169 15.6146 5.30657C15.1788 5.09823 14.714 4.71678 14.4621 4.18408C14.4203 4.09575 14.3844 4.00325 14.3554 3.9067C14.3178 3.78138 14.2919 3.64923 14.2802 3.51045C14.2795 3.50294 14.2789 3.49541 14.2784 3.48786C14.2724 3.40638 14.2068 3.33984 14.1251 3.33984C14.0434 3.33984 13.9777 3.40638 13.9718 3.48786C13.9712 3.49541 13.9706 3.50294 13.97 3.51045C13.9582 3.64923 13.9323 3.78138 13.8947 3.9067C13.8658 4.00325 13.8298 4.09574 13.7881 4.18408C13.5361 4.71678 13.0713 5.09823 12.6355 5.30657C12.5829 5.33169 12.5308 5.3543 12.4795 5.37435C12.368 5.41795 12.2605 5.44947 12.1614 5.46851C12.1473 5.47121 12.1334 5.47366 12.1196 5.47586C12.0282 5.49052 11.9531 5.56525 11.9531 5.6579C11.9531 5.75056 12.028 5.8252 12.1201 5.83556C12.1392 5.83771 12.1587 5.84022 12.1785 5.8431C12.2784 5.85764 12.3866 5.88162 12.4987 5.91634C12.5523 5.93296 12.6068 5.95204 12.6618 5.97373C13.09 6.14275 13.5427 6.47002 13.7895 7.02322C13.8401 7.1366 13.882 7.25948 13.9133 7.39243C13.9435 7.52036 13.9637 7.65763 13.9724 7.80475C13.9727 7.8101 13.973 7.81546 13.9733 7.82083C13.9776 7.90242 14.0434 7.96875 14.1251 7.96875C14.2068 7.96875 14.2725 7.90242 14.2768 7.82083C14.2771 7.81546 14.2774 7.8101 14.2777 7.80475C14.2864 7.65763 14.3067 7.52036 14.3368 7.39243ZM13.3492 7.85382C13.2978 6.88139 12.5468 6.51248 12.0502 6.45664C11.6814 6.41516 11.3281 6.10686 11.3281 5.6579C11.3281 5.20622 11.6805 4.91325 12.0208 4.85873C12.2211 4.82663 12.5533 4.68499 12.8426 4.42078C13.1226 4.16511 13.3197 3.83487 13.3484 3.44221C13.3761 3.06454 13.6863 2.71484 14.1251 2.71484C14.5639 2.71484 14.874 3.06454 14.9017 3.44221C14.9305 3.83487 15.1276 4.16511 15.4075 4.42078C15.6968 4.68499 16.029 4.82663 16.2294 4.85873C16.5696 4.91325 16.922 5.20622 16.922 5.6579C16.922 6.10686 16.5687 6.41516 16.1999 6.45664C15.7034 6.51248 14.9524 6.88139 14.901 7.85382C14.8803 8.24557 14.5605 8.59375 14.1251 8.59375C13.6897 8.59375 13.3699 8.24557 13.3492 7.85382Z" data-figma-gradient-fill="{&#34;type&#34;:&#34;GRADIENT_ANGULAR&#34;,&#34;stops&#34;:[{&#34;color&#34;:{&#34;r&#34;:0.71764707565307617,&#34;g&#34;:0.42745098471641541,&#34;b&#34;:0.94117647409439087,&#34;a&#34;:1.0},&#34;position&#34;:0.16153408586978912},{&#34;color&#34;:{&#34;r&#34;:0.36635640263557434,&#34;g&#34;:0.39170214533805847,&#34;b&#34;:1.0,&#34;a&#34;:1.0},&#34;position&#34;:0.29678985476493835},{&#34;color&#34;:{&#34;r&#34;:0.40418484807014465,&#34;g&#34;:1.0,&#34;b&#34;:0.35237476229667664,&#34;a&#34;:1.0},&#34;position&#34;:0.41328510642051697},{&#34;color&#34;:{&#34;r&#34;:0.80784314870834351,&#34;g&#34;:0.99215686321258545,&#34;b&#34;:0.38431373238563538,&#34;a&#34;:1.0},&#34;position&#34;:0.59472233057022095},{&#34;color&#34;:{&#34;r&#34;:0.50588238239288330,&#34;g&#34;:0.98823529481887817,&#34;b&#34;:0.53333336114883423,&#34;a&#34;:1.0},&#34;position&#34;:0.73792111873626709},{&#34;color&#34;:{&#34;r&#34;:0.47559547424316406,&#34;g&#34;:0.29134520888328552,&#34;b&#34;:1.0,&#34;a&#34;:1.0},&#34;position&#34;:0.85771954059600830},{&#34;color&#34;:{&#34;r&#34;:0.47450980544090271,&#34;g&#34;:0.54901963472366333,&#34;b&#34;:0.96862745285034180,&#34;a&#34;:1.0},&#34;position&#34;:1.0}],&#34;stopsVar&#34;:[{&#34;color&#34;:{&#34;r&#34;:0.71764707565307617,&#34;g&#34;:0.42745098471641541,&#34;b&#34;:0.94117647409439087,&#34;a&#34;:1.0},&#34;position&#34;:0.16153408586978912},{&#34;color&#34;:{&#34;r&#34;:0.36635640263557434,&#34;g&#34;:0.39170214533805847,&#34;b&#34;:1.0,&#34;a&#34;:1.0},&#34;position&#34;:0.29678985476493835},{&#34;color&#34;:{&#34;r&#34;:0.40418484807014465,&#34;g&#34;:1.0,&#34;b&#34;:0.35237476229667664,&#34;a&#34;:1.0},&#34;position&#34;:0.41328510642051697},{&#34;color&#34;:{&#34;r&#34;:0.80784314870834351,&#34;g&#34;:0.99215686321258545,&#34;b&#34;:0.38431373238563538,&#34;a&#34;:1.0},&#34;position&#34;:0.59472233057022095},{&#34;color&#34;:{&#34;r&#34;:0.50588238239288330,&#34;g&#34;:0.98823529481887817,&#34;b&#34;:0.53333336114883423,&#34;a&#34;:1.0},&#34;position&#34;:0.73792111873626709},{&#34;color&#34;:{&#34;r&#34;:0.47559547424316406,&#34;g&#34;:0.29134520888328552,&#34;b&#34;:1.0,&#34;a&#34;:1.0},&#34;position&#34;:0.85771954059600830},{&#34;color&#34;:{&#34;r&#34;:0.47450980544090271,&#34;g&#34;:0.54901963472366333,&#34;b&#34;:0.96862745285034180,&#34;a&#34;:1.0},&#34;position&#34;:1.0}],&#34;transform&#34;:{&#34;m00&#34;:3.4252662428204219e-16,&#34;m01&#34;:-5.5938839912414551,&#34;m02&#34;:16.922008514404297,&#34;m10&#34;:5.878906250,&#34;m11&#34;:3.5997920876462502e-16,&#34;m12&#34;:2.714843750},&#34;opacity&#34;:1.0,&#34;blendMode&#34;:&#34;NORMAL&#34;,&#34;visible&#34;:true}"/>
<path d="M12.1196 5.47586C12.0282 5.49052 11.9531 5.56525 11.9531 5.6579V5.6579C11.9531 5.75056 12.028 5.8252 12.1201 5.83556C12.7886 5.91073 13.8997 6.42753 13.9733 7.82083C13.9776 7.90242 14.0434 7.96875 14.1251 7.96875V7.96875C14.2068 7.96875 14.2725 7.90242 14.2768 7.82083C14.3505 6.42753 15.4616 5.91073 16.1301 5.83556C16.2221 5.8252 16.297 5.75056 16.297 5.6579V5.6579C16.297 5.56525 16.222 5.49052 16.1305 5.47586C15.462 5.36875 14.3644 4.66273 14.2784 3.48786C14.2724 3.40638 14.2068 3.33984 14.1251 3.33984V3.33984C14.0434 3.33984 13.9777 3.40638 13.9718 3.48786C13.8857 4.66273 12.7881 5.36875 12.1196 5.47586Z" fill="white"/>
<path fill-rule="evenodd" clip-rule="evenodd" d="M14.1251 3.95446C13.9941 4.4063 13.7281 4.77587 13.4222 5.05533C13.1058 5.34429 12.7364 5.54654 12.4053 5.64845C13.0365 5.79862 13.8596 6.26658 14.1251 7.27082C14.3905 6.26658 15.2136 5.79862 15.8449 5.64845C15.5137 5.54654 15.1444 5.34429 14.828 5.05533C14.522 4.77587 14.256 4.4063 14.1251 3.95446ZM13.738 3.47074C13.7521 3.27819 13.9095 3.10547 14.1251 3.10547C14.3407 3.10547 14.498 3.27819 14.5121 3.47074C14.5498 3.98513 14.8087 4.40286 15.1441 4.70921C15.483 5.01876 15.8835 5.19893 16.1676 5.24444C16.3523 5.27405 16.5314 5.43061 16.5314 5.6579C16.5314 5.88417 16.3521 6.04644 16.1563 6.06846C15.5523 6.13639 14.5762 6.59773 14.5109 7.8332C14.5004 8.0311 14.3394 8.20312 14.1251 8.20312C13.9107 8.20312 13.7497 8.0311 13.7392 7.8332C13.674 6.59773 12.6979 6.13639 12.0939 6.06846C11.898 6.04644 11.7188 5.88417 11.7188 5.6579C11.7188 5.43061 11.8978 5.27405 12.0826 5.24444C12.3666 5.19893 12.7671 5.01876 13.1061 4.70921C13.4415 4.40286 13.7003 3.98513 13.738 3.47074Z" fill="black"/>
</g>
<defs>
<filter id="filter0_ii_6282_60090" x="-0.117188" y="0" width="20.2344" height="20" filterUnits="userSpaceOnUse" color-interpolation-filters="sRGB">
<feFlood flood-opacity="0" result="BackgroundImageFix"/>
<feBlend mode="normal" in="SourceGraphic" in2="BackgroundImageFix" result="shape"/>
<feColorMatrix in="SourceAlpha" type="matrix" values="0 0 0 0 0 0 0 0 0 0 0 0 0 0 0 0 0 0 127 0" result="hardAlpha"/>
<feOffset dx="0.117188"/>
<feGaussianBlur stdDeviation="0.136719"/>
<feComposite in2="hardAlpha" operator="arithmetic" k2="-1" k3="1"/>
<feColorMatrix type="matrix" values="0 0 0 0 0 0 0 0 0 0 0 0 0 0 0 0 0 0 0.2 0"/>
<feBlend mode="normal" in2="shape" result="effect1_innerShadow_6282_60090"/>
<feColorMatrix in="SourceAlpha" type="matrix" values="0 0 0 0 0 0 0 0 0 0 0 0 0 0 0 0 0 0 127 0" result="hardAlpha"/>
<feOffset dx="-0.117188"/>
<feGaussianBlur stdDeviation="0.136719"/>
<feComposite in2="hardAlpha" operator="arithmetic" k2="-1" k3="1"/>
<feColorMatrix type="matrix" values="0 0 0 0 0 0 0 0 0 0 0 0 0 0 0 0 0 0 0.2 0"/>
<feBlend mode="normal" in2="effect1_innerShadow_6282_60090" result="effect2_innerShadow_6282_60090"/>
</filter>
<clipPath id="paint1_angular_6282_60090_clip_path"><path fill-rule="evenodd" clip-rule="evenodd" d="M9.52822 15.2832C9.57709 15.0209 9.64333 14.7745 9.7244 14.5432C10.3077 12.8794 11.6587 12.002 12.832 11.6331C12.9221 11.6048 13.011 11.5795 13.0986 11.5571C13.2704 11.513 13.4365 11.4801 13.5937 11.4572C13.6395 11.4505 13.6846 11.4447 13.7289 11.4397C13.942 11.4158 14.1152 11.243 14.1152 11.0286C14.1152 10.8142 13.9416 10.6412 13.7299 10.6073C13.6981 10.6022 13.6659 10.5965 13.6334 10.5903C13.4758 10.56 13.3091 10.5161 13.1365 10.4589C13.0523 10.431 12.9667 10.3999 12.8801 10.3657C11.6948 9.89741 10.3195 8.8415 9.72728 7.28587C9.66035 7.11004 9.60342 6.92784 9.5579 6.73938C9.50513 6.52089 9.4677 6.29399 9.44779 6.05888C9.44632 6.0415 9.44494 6.02408 9.44366 6.00661C9.42985 5.81805 9.27794 5.66406 9.08887 5.66406C8.89981 5.66406 8.7479 5.81805 8.73409 6.00661C8.73281 6.02408 8.73143 6.0415 8.72996 6.05888C8.71005 6.29399 8.67261 6.52089 8.61985 6.73938C8.57433 6.92784 8.5174 7.11004 8.45047 7.28587C7.85829 8.8415 6.48296 9.89741 5.29765 10.3657C5.21105 10.3999 5.12546 10.431 5.04127 10.4589C4.8687 10.5161 4.70198 10.56 4.54439 10.5903C4.51182 10.5965 4.47964 10.6022 4.44788 10.6073C4.23615 10.6412 4.0625 10.8142 4.0625 11.0286C4.0625 11.243 4.23578 11.4158 4.44886 11.4397C4.49312 11.4447 4.53821 11.4505 4.58406 11.4572C4.74127 11.4801 4.90739 11.513 5.07919 11.5571C5.16671 11.5795 5.2557 11.6048 5.34574 11.6331C6.51902 12.002 7.87003 12.8794 8.45335 14.5432C8.53442 14.7745 8.60066 15.0209 8.64953 15.2832C8.69162 15.5091 8.72083 15.7469 8.73555 15.9969C8.73627 16.0093 8.73697 16.0217 8.73762 16.0341C8.7476 16.2229 8.89981 16.3764 9.08887 16.3764C9.27794 16.3764 9.43015 16.2229 9.44012 16.0341C9.44078 16.0217 9.44147 16.0093 9.4422 15.9969C9.45692 15.7469 9.48613 15.5091 9.52822 15.2832ZM7.52837 16.098C7.40107 13.689 5.52739 12.7796 4.31353 12.6431C3.56426 12.5588 2.85156 11.9333 2.85156 11.0286C2.85156 10.1185 3.56264 9.52277 4.25628 9.41162C4.7704 9.32923 5.5804 8.97822 6.2798 8.33945C6.96107 7.71723 7.45446 6.90024 7.52639 5.91816C7.58222 5.15574 8.20794 4.45312 9.08887 4.45312C9.96981 4.45312 10.5955 5.15574 10.6514 5.91816C10.7233 6.90024 11.2167 7.71723 11.898 8.33945C12.5973 8.97822 13.4073 9.32923 13.9215 9.41162C14.6151 9.52277 15.3262 10.1185 15.3262 11.0286C15.3262 11.9333 14.6135 12.5588 13.8642 12.6431C12.6504 12.7796 10.7767 13.689 10.6494 16.098C10.6076 16.8878 9.96321 17.5874 9.08887 17.5874C8.21454 17.5874 7.57011 16.8878 7.52837 16.098Z"/></clipPath><clipPath id="paint2_angular_6282_60090_clip_path"><path fill-rule="evenodd" clip-rule="evenodd" d="M14.3368 7.39243C14.3681 7.25948 14.41 7.1366 14.4606 7.02322C14.7074 6.47002 15.1601 6.14275 15.5884 5.97373C15.6433 5.95204 15.6978 5.93296 15.7515 5.91634C15.8636 5.88162 15.9718 5.85764 16.0716 5.8431C16.0915 5.84022 16.1109 5.83771 16.1301 5.83556C16.2221 5.8252 16.297 5.75056 16.297 5.6579C16.297 5.56525 16.222 5.49052 16.1305 5.47586C16.1168 5.47366 16.1029 5.47121 16.0888 5.46851C15.9896 5.44947 15.8821 5.41795 15.7706 5.37435C15.7193 5.3543 15.6672 5.33169 15.6146 5.30657C15.1788 5.09823 14.714 4.71678 14.4621 4.18408C14.4203 4.09575 14.3844 4.00325 14.3554 3.9067C14.3178 3.78138 14.2919 3.64923 14.2802 3.51045C14.2795 3.50294 14.2789 3.49541 14.2784 3.48786C14.2724 3.40638 14.2068 3.33984 14.1251 3.33984C14.0434 3.33984 13.9777 3.40638 13.9718 3.48786C13.9712 3.49541 13.9706 3.50294 13.97 3.51045C13.9582 3.64923 13.9323 3.78138 13.8947 3.9067C13.8658 4.00325 13.8298 4.09574 13.7881 4.18408C13.5361 4.71678 13.0713 5.09823 12.6355 5.30657C12.5829 5.33169 12.5308 5.3543 12.4795 5.37435C12.368 5.41795 12.2605 5.44947 12.1614 5.46851C12.1473 5.47121 12.1334 5.47366 12.1196 5.47586C12.0282 5.49052 11.9531 5.56525 11.9531 5.6579C11.9531 5.75056 12.028 5.8252 12.1201 5.83556C12.1392 5.83771 12.1587 5.84022 12.1785 5.8431C12.2784 5.85764 12.3866 5.88162 12.4987 5.91634C12.5523 5.93296 12.6068 5.95204 12.6618 5.97373C13.09 6.14275 13.5427 6.47002 13.7895 7.02322C13.8401 7.1366 13.882 7.25948 13.9133 7.39243C13.9435 7.52036 13.9637 7.65763 13.9724 7.80475C13.9727 7.8101 13.973 7.81546 13.9733 7.82083C13.9776 7.90242 14.0434 7.96875 14.1251 7.96875C14.2068 7.96875 14.2725 7.90242 14.2768 7.82083C14.2771 7.81546 14.2774 7.8101 14.2777 7.80475C14.2864 7.65763 14.3067 7.52036 14.3368 7.39243ZM13.3492 7.85382C13.2978 6.88139 12.5468 6.51248 12.0502 6.45664C11.6814 6.41516 11.3281 6.10686 11.3281 5.6579C11.3281 5.20622 11.6805 4.91325 12.0208 4.85873C12.2211 4.82663 12.5533 4.68499 12.8426 4.42078C13.1226 4.16511 13.3197 3.83487 13.3484 3.44221C13.3761 3.06454 13.6863 2.71484 14.1251 2.71484C14.5639 2.71484 14.874 3.06454 14.9017 3.44221C14.9305 3.83487 15.1276 4.16511 15.4075 4.42078C15.6968 4.68499 16.029 4.82663 16.2294 4.85873C16.5696 4.91325 16.922 5.20622 16.922 5.6579C16.922 6.10686 16.5687 6.41516 16.1999 6.45664C15.7034 6.51248 14.9524 6.88139 14.901 7.85382C14.8803 8.24557 14.5605 8.59375 14.1251 8.59375C13.6897 8.59375 13.3699 8.24557 13.3492 7.85382Z"/></clipPath><linearGradient id="paint0_linear_6282_60090" x1="10" y1="0" x2="10" y2="20" gradientUnits="userSpaceOnUse">
<stop stop-color="#252525"/>
<stop offset="1" stop-color="#121215"/>
</linearGradient>
</defs>
</svg>
